<svg xmlns="http://www.w3.org/2000/svg" width="27.826" height="24.313" viewBox="0 0 27.826 24.313">
  <g id="icon" transform="translate(25.057 -1.808) rotate(77)">
    <path id="Trazado_2390" data-name="Trazado 2390" d="M20.668.8a1.607,1.607,0,0,0-1.4-.8H1.59A1.607,1.607,0,0,0,.215,2.411L4.8,10.086v5.987A1.607,1.607,0,0,0,6.411,17.68h8.036a1.607,1.607,0,0,0,1.607-1.607V10.086l4.589-7.675A1.607,1.607,0,0,0,20.668.8ZM8.019,14.465V11.251H12.84v3.215ZM13.54,8.036H7.319L4.426,3.215H16.433Z" transform="translate(0 8.036)" fill="#fff"/>
    <path id="Trazado_2391" data-name="Trazado 2391" d="M1.607,7.233A1.607,1.607,0,0,0,3.215,5.625V1.607A1.607,1.607,0,1,0,0,1.607V5.625A1.607,1.607,0,0,0,1.607,7.233Z" transform="translate(8.822 0)" fill="#fff"/>
    <path id="Trazado_2392" data-name="Trazado 2392" d="M.718,5.353a1.607,1.607,0,0,0,2.226-.442L4.551,2.5A1.608,1.608,0,0,0,1.875.716L.268,3.127A1.607,1.607,0,0,0,.718,5.353Z" transform="translate(14.445 1.606)" fill="#fff"/>
    <path id="Trazado_2393" data-name="Trazado 2393" d="M1.878,4.911A1.608,1.608,0,0,0,4.554,3.127L2.946.716A1.608,1.608,0,0,0,.27,2.5Z" transform="translate(1.593 1.606)" fill="#fff"/>
  </g>
</svg>
